<?xml version="1.0" standalone="no"?><!DOCTYPE svg PUBLIC "-//W3C//DTD SVG 1.1//EN" "http://www.w3.org/Graphics/SVG/1.1/DTD/svg11.dtd"><svg t="1566119365819" class="icon" viewBox="0 0 1024 1024" version="1.1" xmlns="http://www.w3.org/2000/svg" p-id="4228" width="48" height="48" xmlns:xlink="http://www.w3.org/1999/xlink"><defs><style type="text/css"></style></defs><path d="M464.715 388.342c27.392-27.392 9.16-148.882-77.018-235.06s-206.1-105.979-235.06-77.019c-28.96 28.96-9.16 148.882 77.018 235.06s207.668 104.411 235.06 77.019z m330.062-77.02c86.178-86.178 105.979-206.1 77.018-235.06-28.96-28.96-148.882-9.16-235.06 77.018s-104.411 207.668-77.018 235.06 148.882 9.16 235.06-77.018z m-338.95 154.75H139.719c-25.055 0-45.553 20.499-45.553 45.553v134.468h484.893l-314.374 38.439c-19.4 3.947-32.198 22.536-28.964 42.067l33.552 202.566c2.941 17.758 18.299 30.781 36.3 30.781h393.861c18.387 0 33.95-13.573 36.452-31.788l38.733-282.065h86.47c25.055 0 45.553-20.499 45.553-45.553V466.071H455.825z" fill="#00FA9A" p-id="4229"></path></svg>